<mxfile host="app.diagrams.net" modified="2022-06-17T05:04:26.517Z" agent="5.0 (Windows NT 10.0; Win64; x64) AppleWebKit/537.36 (KHTML, like Gecko) Chrome/102.0.5005.125 Safari/537.36" etag="TQ9AOTOtWFX2ZymgLS7J" version="18.1.3" type="github">
  <diagram id="iocnBgvWLSSSv_GpS79G" name="Page-1">
    <mxGraphModel dx="1243" dy="669" grid="1" gridSize="10" guides="1" tooltips="1" connect="1" arrows="1" fold="1" page="1" pageScale="1" pageWidth="827" pageHeight="1169" math="0" shadow="0">
      <root>
        <mxCell id="0" />
        <mxCell id="1" parent="0" />
        <mxCell id="_97el3B1lCOY3c-CyA0G-3" style="edgeStyle=orthogonalEdgeStyle;rounded=0;orthogonalLoop=1;jettySize=auto;html=1;entryX=0.5;entryY=0;entryDx=0;entryDy=0;" edge="1" parent="1" source="_97el3B1lCOY3c-CyA0G-1" target="_97el3B1lCOY3c-CyA0G-2">
          <mxGeometry relative="1" as="geometry" />
        </mxCell>
        <mxCell id="_97el3B1lCOY3c-CyA0G-1" value="Начало" style="rounded=1;whiteSpace=wrap;html=1;" vertex="1" parent="1">
          <mxGeometry x="354" y="100" width="120" height="60" as="geometry" />
        </mxCell>
        <mxCell id="_97el3B1lCOY3c-CyA0G-5" style="edgeStyle=orthogonalEdgeStyle;rounded=0;orthogonalLoop=1;jettySize=auto;html=1;entryX=0.5;entryY=0;entryDx=0;entryDy=0;" edge="1" parent="1" source="_97el3B1lCOY3c-CyA0G-2" target="_97el3B1lCOY3c-CyA0G-4">
          <mxGeometry relative="1" as="geometry" />
        </mxCell>
        <mxCell id="_97el3B1lCOY3c-CyA0G-2" value="Ввод диапазон чисел (n) и количество попыток (k)" style="rounded=0;whiteSpace=wrap;html=1;" vertex="1" parent="1">
          <mxGeometry x="354" y="180" width="120" height="60" as="geometry" />
        </mxCell>
        <mxCell id="_97el3B1lCOY3c-CyA0G-13" style="edgeStyle=orthogonalEdgeStyle;rounded=0;orthogonalLoop=1;jettySize=auto;html=1;" edge="1" parent="1" source="_97el3B1lCOY3c-CyA0G-4" target="_97el3B1lCOY3c-CyA0G-12">
          <mxGeometry relative="1" as="geometry" />
        </mxCell>
        <mxCell id="_97el3B1lCOY3c-CyA0G-4" value="Инициализация&amp;nbsp; модуля&lt;br&gt;случайных чисел (rand)" style="rounded=0;whiteSpace=wrap;html=1;" vertex="1" parent="1">
          <mxGeometry x="354" y="260" width="120" height="60" as="geometry" />
        </mxCell>
        <mxCell id="_97el3B1lCOY3c-CyA0G-9" style="edgeStyle=orthogonalEdgeStyle;rounded=0;orthogonalLoop=1;jettySize=auto;html=1;" edge="1" parent="1" source="_97el3B1lCOY3c-CyA0G-6" target="_97el3B1lCOY3c-CyA0G-8">
          <mxGeometry relative="1" as="geometry" />
        </mxCell>
        <mxCell id="_97el3B1lCOY3c-CyA0G-6" value="Установка переменной step = 1" style="rounded=0;whiteSpace=wrap;html=1;" vertex="1" parent="1">
          <mxGeometry x="354" y="420" width="120" height="60" as="geometry" />
        </mxCell>
        <mxCell id="_97el3B1lCOY3c-CyA0G-11" style="edgeStyle=orthogonalEdgeStyle;rounded=0;orthogonalLoop=1;jettySize=auto;html=1;entryX=0.561;entryY=0.023;entryDx=0;entryDy=0;entryPerimeter=0;" edge="1" parent="1" source="_97el3B1lCOY3c-CyA0G-8" target="_97el3B1lCOY3c-CyA0G-10">
          <mxGeometry relative="1" as="geometry">
            <Array as="points">
              <mxPoint x="601" y="540" />
            </Array>
          </mxGeometry>
        </mxCell>
        <mxCell id="_97el3B1lCOY3c-CyA0G-40" style="edgeStyle=orthogonalEdgeStyle;rounded=0;orthogonalLoop=1;jettySize=auto;html=1;entryX=0.5;entryY=0;entryDx=0;entryDy=0;" edge="1" parent="1" source="_97el3B1lCOY3c-CyA0G-8" target="_97el3B1lCOY3c-CyA0G-39">
          <mxGeometry relative="1" as="geometry">
            <Array as="points">
              <mxPoint x="300" y="540" />
              <mxPoint x="300" y="1060" />
              <mxPoint x="414" y="1060" />
            </Array>
          </mxGeometry>
        </mxCell>
        <mxCell id="_97el3B1lCOY3c-CyA0G-8" value="Пока step &amp;lt; k" style="rhombus;whiteSpace=wrap;html=1;" vertex="1" parent="1">
          <mxGeometry x="374" y="500" width="80" height="80" as="geometry" />
        </mxCell>
        <mxCell id="_97el3B1lCOY3c-CyA0G-16" style="edgeStyle=orthogonalEdgeStyle;rounded=0;orthogonalLoop=1;jettySize=auto;html=1;entryX=0.5;entryY=0;entryDx=0;entryDy=0;" edge="1" parent="1" source="_97el3B1lCOY3c-CyA0G-10" target="_97el3B1lCOY3c-CyA0G-15">
          <mxGeometry relative="1" as="geometry" />
        </mxCell>
        <mxCell id="_97el3B1lCOY3c-CyA0G-10" value="Ввод ответа AN" style="shape=parallelogram;perimeter=parallelogramPerimeter;whiteSpace=wrap;html=1;fixedSize=1;" vertex="1" parent="1">
          <mxGeometry x="534" y="580" width="120" height="60" as="geometry" />
        </mxCell>
        <mxCell id="_97el3B1lCOY3c-CyA0G-14" style="edgeStyle=orthogonalEdgeStyle;rounded=0;orthogonalLoop=1;jettySize=auto;html=1;" edge="1" parent="1" source="_97el3B1lCOY3c-CyA0G-12" target="_97el3B1lCOY3c-CyA0G-6">
          <mxGeometry relative="1" as="geometry" />
        </mxCell>
        <mxCell id="_97el3B1lCOY3c-CyA0G-12" value="Загадывание числа&lt;br&gt;i = rand(1,n)" style="rounded=0;whiteSpace=wrap;html=1;" vertex="1" parent="1">
          <mxGeometry x="354" y="340" width="120" height="60" as="geometry" />
        </mxCell>
        <mxCell id="_97el3B1lCOY3c-CyA0G-18" style="edgeStyle=orthogonalEdgeStyle;rounded=0;orthogonalLoop=1;jettySize=auto;html=1;" edge="1" parent="1" source="_97el3B1lCOY3c-CyA0G-15" target="_97el3B1lCOY3c-CyA0G-17">
          <mxGeometry relative="1" as="geometry">
            <Array as="points">
              <mxPoint x="674" y="710" />
            </Array>
          </mxGeometry>
        </mxCell>
        <mxCell id="_97el3B1lCOY3c-CyA0G-20" style="edgeStyle=orthogonalEdgeStyle;rounded=0;orthogonalLoop=1;jettySize=auto;html=1;entryX=0.5;entryY=0;entryDx=0;entryDy=0;" edge="1" parent="1" source="_97el3B1lCOY3c-CyA0G-15" target="_97el3B1lCOY3c-CyA0G-19">
          <mxGeometry relative="1" as="geometry">
            <mxPoint x="500" y="750" as="targetPoint" />
            <Array as="points">
              <mxPoint x="501" y="710" />
            </Array>
          </mxGeometry>
        </mxCell>
        <mxCell id="_97el3B1lCOY3c-CyA0G-15" value="Если AN = i" style="rhombus;whiteSpace=wrap;html=1;" vertex="1" parent="1">
          <mxGeometry x="554" y="670" width="80" height="80" as="geometry" />
        </mxCell>
        <mxCell id="_97el3B1lCOY3c-CyA0G-41" style="edgeStyle=orthogonalEdgeStyle;rounded=0;orthogonalLoop=1;jettySize=auto;html=1;" edge="1" parent="1" source="_97el3B1lCOY3c-CyA0G-17">
          <mxGeometry relative="1" as="geometry">
            <mxPoint x="410" y="1060" as="targetPoint" />
            <Array as="points">
              <mxPoint x="674" y="860" />
              <mxPoint x="790" y="860" />
              <mxPoint x="790" y="1060" />
            </Array>
          </mxGeometry>
        </mxCell>
        <mxCell id="_97el3B1lCOY3c-CyA0G-17" value="Вывод &quot;Вы отгадали&quot;" style="shape=parallelogram;perimeter=parallelogramPerimeter;whiteSpace=wrap;html=1;fixedSize=1;" vertex="1" parent="1">
          <mxGeometry x="614" y="750" width="120" height="60" as="geometry" />
        </mxCell>
        <mxCell id="_97el3B1lCOY3c-CyA0G-24" style="edgeStyle=orthogonalEdgeStyle;rounded=0;orthogonalLoop=1;jettySize=auto;html=1;" edge="1" parent="1" source="_97el3B1lCOY3c-CyA0G-19" target="_97el3B1lCOY3c-CyA0G-23">
          <mxGeometry relative="1" as="geometry" />
        </mxCell>
        <mxCell id="_97el3B1lCOY3c-CyA0G-19" value="Step +1" style="rounded=0;whiteSpace=wrap;html=1;" vertex="1" parent="1">
          <mxGeometry x="470" y="750" width="60" height="30" as="geometry" />
        </mxCell>
        <mxCell id="_97el3B1lCOY3c-CyA0G-27" style="edgeStyle=orthogonalEdgeStyle;rounded=0;orthogonalLoop=1;jettySize=auto;html=1;entryX=0.5;entryY=0;entryDx=0;entryDy=0;" edge="1" parent="1" source="_97el3B1lCOY3c-CyA0G-23" target="_97el3B1lCOY3c-CyA0G-26">
          <mxGeometry relative="1" as="geometry">
            <Array as="points">
              <mxPoint x="430" y="835" />
            </Array>
          </mxGeometry>
        </mxCell>
        <mxCell id="_97el3B1lCOY3c-CyA0G-30" style="edgeStyle=orthogonalEdgeStyle;rounded=0;orthogonalLoop=1;jettySize=auto;html=1;entryX=0.5;entryY=0;entryDx=0;entryDy=0;" edge="1" parent="1" source="_97el3B1lCOY3c-CyA0G-23" target="_97el3B1lCOY3c-CyA0G-29">
          <mxGeometry relative="1" as="geometry">
            <Array as="points">
              <mxPoint x="630" y="835" />
            </Array>
          </mxGeometry>
        </mxCell>
        <mxCell id="_97el3B1lCOY3c-CyA0G-23" value="Если Step = K+1" style="rhombus;whiteSpace=wrap;html=1;" vertex="1" parent="1">
          <mxGeometry x="460" y="800" width="80" height="70" as="geometry" />
        </mxCell>
        <mxCell id="_97el3B1lCOY3c-CyA0G-32" style="edgeStyle=orthogonalEdgeStyle;rounded=0;orthogonalLoop=1;jettySize=auto;html=1;entryX=0.584;entryY=0.025;entryDx=0;entryDy=0;entryPerimeter=0;" edge="1" parent="1" source="_97el3B1lCOY3c-CyA0G-26" target="_97el3B1lCOY3c-CyA0G-31">
          <mxGeometry relative="1" as="geometry">
            <Array as="points">
              <mxPoint x="510" y="910" />
            </Array>
          </mxGeometry>
        </mxCell>
        <mxCell id="_97el3B1lCOY3c-CyA0G-36" style="edgeStyle=orthogonalEdgeStyle;rounded=0;orthogonalLoop=1;jettySize=auto;html=1;" edge="1" parent="1" source="_97el3B1lCOY3c-CyA0G-26">
          <mxGeometry relative="1" as="geometry">
            <mxPoint x="360" y="910" as="targetPoint" />
          </mxGeometry>
        </mxCell>
        <mxCell id="_97el3B1lCOY3c-CyA0G-26" value="Если K &amp;gt; i" style="rhombus;whiteSpace=wrap;html=1;" vertex="1" parent="1">
          <mxGeometry x="390" y="870" width="80" height="80" as="geometry" />
        </mxCell>
        <mxCell id="_97el3B1lCOY3c-CyA0G-34" style="edgeStyle=orthogonalEdgeStyle;rounded=0;orthogonalLoop=1;jettySize=auto;html=1;entryX=0.5;entryY=0;entryDx=0;entryDy=0;" edge="1" parent="1" source="_97el3B1lCOY3c-CyA0G-29" target="_97el3B1lCOY3c-CyA0G-33">
          <mxGeometry relative="1" as="geometry">
            <Array as="points">
              <mxPoint x="714" y="910" />
            </Array>
          </mxGeometry>
        </mxCell>
        <mxCell id="_97el3B1lCOY3c-CyA0G-35" style="edgeStyle=orthogonalEdgeStyle;rounded=0;orthogonalLoop=1;jettySize=auto;html=1;entryX=0.5;entryY=1;entryDx=0;entryDy=0;" edge="1" parent="1" source="_97el3B1lCOY3c-CyA0G-29" target="_97el3B1lCOY3c-CyA0G-8">
          <mxGeometry relative="1" as="geometry">
            <Array as="points">
              <mxPoint x="570" y="910" />
              <mxPoint x="570" y="1040" />
              <mxPoint x="360" y="1040" />
              <mxPoint x="360" y="690" />
              <mxPoint x="414" y="690" />
            </Array>
          </mxGeometry>
        </mxCell>
        <mxCell id="_97el3B1lCOY3c-CyA0G-29" value="Если K &amp;lt; i" style="rhombus;whiteSpace=wrap;html=1;" vertex="1" parent="1">
          <mxGeometry x="590" y="870" width="80" height="80" as="geometry" />
        </mxCell>
        <mxCell id="_97el3B1lCOY3c-CyA0G-37" style="edgeStyle=orthogonalEdgeStyle;rounded=0;orthogonalLoop=1;jettySize=auto;html=1;" edge="1" parent="1" source="_97el3B1lCOY3c-CyA0G-31">
          <mxGeometry relative="1" as="geometry">
            <mxPoint x="500" y="1040" as="targetPoint" />
          </mxGeometry>
        </mxCell>
        <mxCell id="_97el3B1lCOY3c-CyA0G-31" value="Вывод i больше" style="shape=parallelogram;perimeter=parallelogramPerimeter;whiteSpace=wrap;html=1;fixedSize=1;" vertex="1" parent="1">
          <mxGeometry x="440" y="950" width="120" height="60" as="geometry" />
        </mxCell>
        <mxCell id="_97el3B1lCOY3c-CyA0G-38" style="edgeStyle=orthogonalEdgeStyle;rounded=0;orthogonalLoop=1;jettySize=auto;html=1;" edge="1" parent="1" source="_97el3B1lCOY3c-CyA0G-33">
          <mxGeometry relative="1" as="geometry">
            <mxPoint x="570" y="1040" as="targetPoint" />
            <Array as="points">
              <mxPoint x="714" y="1040" />
            </Array>
          </mxGeometry>
        </mxCell>
        <mxCell id="_97el3B1lCOY3c-CyA0G-33" value="Вывод i меньше" style="shape=parallelogram;perimeter=parallelogramPerimeter;whiteSpace=wrap;html=1;fixedSize=1;" vertex="1" parent="1">
          <mxGeometry x="654" y="950" width="120" height="60" as="geometry" />
        </mxCell>
        <mxCell id="_97el3B1lCOY3c-CyA0G-39" value="Конец" style="rounded=1;whiteSpace=wrap;html=1;" vertex="1" parent="1">
          <mxGeometry x="354" y="1090" width="120" height="60" as="geometry" />
        </mxCell>
        <mxCell id="_97el3B1lCOY3c-CyA0G-42" value="&lt;font style=&quot;font-size: 16px;&quot;&gt;True&lt;/font&gt;" style="text;strokeColor=none;fillColor=none;html=1;fontSize=24;fontStyle=1;verticalAlign=middle;align=center;" vertex="1" parent="1">
          <mxGeometry x="430" y="500" width="100" height="40" as="geometry" />
        </mxCell>
        <mxCell id="_97el3B1lCOY3c-CyA0G-43" value="&lt;font style=&quot;font-size: 16px;&quot;&gt;False&lt;/font&gt;" style="text;strokeColor=none;fillColor=none;html=1;fontSize=24;fontStyle=1;verticalAlign=middle;align=center;" vertex="1" parent="1">
          <mxGeometry x="300" y="500" width="100" height="40" as="geometry" />
        </mxCell>
        <mxCell id="_97el3B1lCOY3c-CyA0G-44" value="&lt;font style=&quot;font-size: 16px;&quot;&gt;True&lt;/font&gt;" style="text;strokeColor=none;fillColor=none;html=1;fontSize=24;fontStyle=1;verticalAlign=middle;align=center;" vertex="1" parent="1">
          <mxGeometry x="614" y="670" width="100" height="40" as="geometry" />
        </mxCell>
        <mxCell id="_97el3B1lCOY3c-CyA0G-45" value="&lt;font style=&quot;font-size: 16px;&quot;&gt;True&lt;/font&gt;" style="text;strokeColor=none;fillColor=none;html=1;fontSize=24;fontStyle=1;verticalAlign=middle;align=center;" vertex="1" parent="1">
          <mxGeometry x="634" y="870" width="100" height="40" as="geometry" />
        </mxCell>
        <mxCell id="_97el3B1lCOY3c-CyA0G-46" value="&lt;font style=&quot;font-size: 16px;&quot;&gt;True&lt;/font&gt;" style="text;strokeColor=none;fillColor=none;html=1;fontSize=24;fontStyle=1;verticalAlign=middle;align=center;" vertex="1" parent="1">
          <mxGeometry x="434" y="860" width="100" height="40" as="geometry" />
        </mxCell>
        <mxCell id="_97el3B1lCOY3c-CyA0G-47" value="&lt;font style=&quot;font-size: 16px;&quot;&gt;True&lt;/font&gt;" style="text;strokeColor=none;fillColor=none;html=1;fontSize=24;fontStyle=1;verticalAlign=middle;align=center;" vertex="1" parent="1">
          <mxGeometry x="514" y="790" width="100" height="40" as="geometry" />
        </mxCell>
        <mxCell id="_97el3B1lCOY3c-CyA0G-48" value="&lt;font style=&quot;font-size: 16px;&quot;&gt;False&lt;/font&gt;" style="text;strokeColor=none;fillColor=none;html=1;fontSize=24;fontStyle=1;verticalAlign=middle;align=center;" vertex="1" parent="1">
          <mxGeometry x="490" y="670" width="100" height="40" as="geometry" />
        </mxCell>
        <mxCell id="_97el3B1lCOY3c-CyA0G-49" value="&lt;font style=&quot;font-size: 16px;&quot;&gt;False&lt;/font&gt;" style="text;strokeColor=none;fillColor=none;html=1;fontSize=24;fontStyle=1;verticalAlign=middle;align=center;" vertex="1" parent="1">
          <mxGeometry x="390" y="790" width="100" height="40" as="geometry" />
        </mxCell>
        <mxCell id="_97el3B1lCOY3c-CyA0G-50" value="&lt;font style=&quot;font-size: 16px;&quot;&gt;False&lt;/font&gt;" style="text;strokeColor=none;fillColor=none;html=1;fontSize=24;fontStyle=1;verticalAlign=middle;align=center;" vertex="1" parent="1">
          <mxGeometry x="330" y="860" width="100" height="40" as="geometry" />
        </mxCell>
        <mxCell id="_97el3B1lCOY3c-CyA0G-51" value="&lt;font style=&quot;font-size: 16px;&quot;&gt;False&lt;/font&gt;" style="text;strokeColor=none;fillColor=none;html=1;fontSize=24;fontStyle=1;verticalAlign=middle;align=center;" vertex="1" parent="1">
          <mxGeometry x="520" y="870" width="100" height="40" as="geometry" />
        </mxCell>
      </root>
    </mxGraphModel>
  </diagram>
</mxfile>
